<svg width="108" height="67" viewBox="0 0 108 67" fill="none" xmlns="http://www.w3.org/2000/svg">
<g filter="url(#filter0_d_93_914)">
<path d="M4 24.0524L4.22768 21.6014C4.25074 21.5658 4.46291 21.4903 4.86419 21.375C5.28854 21.224 5.8438 21.0455 6.52999 20.8394C7.21014 20.6038 7.97757 20.3498 8.83229 20.0775C9.68701 19.8051 10.5563 19.5297 11.4401 19.2512C12.353 18.9665 13.2368 18.688 14.0915 18.4157C14.9753 18.1372 15.7864 17.874 16.5247 17.6261C16.5247 17.6261 16.6557 17.5986 16.9175 17.5434C17.1793 17.4883 17.4703 17.427 17.7903 17.3597C18.1103 17.2923 18.4158 17.228 18.7068 17.1667C18.9977 17.1055 19.1868 17.0657 19.2741 17.0473C19.9724 16.9003 20.4795 16.9321 20.7957 17.1429C21.1118 17.3536 21.3604 17.902 21.5414 18.7882L13.7888 21.3908C14.1107 23.264 14.538 25.2074 15.0706 27.2211C15.6033 29.2348 16.171 31.2718 16.7739 33.3323C17.3708 35.3633 17.9501 37.3825 18.5119 39.3901C19.1027 41.3915 19.5881 43.3227 19.9682 45.1836C20.0225 45.4494 19.9744 45.6598 19.824 45.8147C19.6966 45.934 19.5196 46.0329 19.2929 46.1114C19.0953 46.1838 18.874 46.215 18.6292 46.2049C18.3904 46.2244 18.1777 46.2229 17.9911 46.2006C17.8254 45.835 17.6024 45.1887 17.322 44.2619C17.0417 43.335 16.7282 42.2457 16.3815 40.9939C16.0348 39.7421 15.667 38.387 15.278 36.9284C14.8891 35.4698 14.5002 34.0113 14.1113 32.5527C13.7223 31.0942 13.3485 29.7095 12.9897 28.3986C12.6249 27.0582 12.3109 25.892 12.0476 24.8999C11.7782 23.8783 11.5571 23.093 11.3843 22.544C11.2406 21.9889 11.1693 21.7883 11.1704 21.9421L4 24.0524Z" fill="black"/>
<path d="M21.9515 13.6646L26.0544 27.9587C26.2218 27.7386 26.4294 27.4177 26.677 26.9958C26.9247 26.574 27.2365 26.1694 27.6126 25.7822C27.9826 25.3654 28.4084 24.9984 28.8898 24.6814C29.3653 24.3349 29.9115 24.112 30.5285 24.0129C31.7455 23.88 32.7906 24.1683 33.6638 24.8779C34.5661 25.5814 35.3185 26.5167 35.921 27.6838C36.5526 28.8448 37.0774 30.1515 37.4954 31.604C37.9074 33.0268 38.22 34.409 38.4333 35.7505C38.6757 37.0859 38.8443 38.2827 38.9391 39.3411C39.063 40.3933 39.135 41.1176 39.1553 41.5138L37.5389 41.623C37.4846 41.3572 37.4002 40.9436 37.2856 40.3824C37.194 39.7855 37.0843 39.1 36.9566 38.3259C36.8228 37.5222 36.6684 36.6921 36.4934 35.8354C36.3185 34.9788 36.1556 34.1813 36.0048 33.4428C35.877 32.6687 35.7383 31.9893 35.5885 31.4046C35.4678 30.8139 35.3688 30.4034 35.2915 30.1732C35.1517 29.34 34.8287 28.5761 34.3228 27.8816C33.8168 27.1871 33.2336 26.7091 32.5733 26.4476C31.907 26.1566 31.1816 26.1707 30.3971 26.4899C29.6066 26.7795 28.8515 27.5393 28.1316 28.7692C27.5704 30.1813 27.2243 31.5327 27.0934 32.8234C26.9565 34.0846 26.9506 35.3182 27.0755 36.5243C27.1944 37.7008 27.3951 38.9063 27.6776 40.1408C27.954 41.3457 28.2165 42.6306 28.4649 43.9955L26.7086 44.088C26.7295 43.7447 26.667 43.1417 26.5212 42.279C26.3984 41.3805 26.2279 40.3227 26.0096 39.1055C25.7853 37.8588 25.5193 36.4822 25.2116 34.9757C24.9331 33.4631 24.6163 31.9123 24.2615 30.3234C23.9296 28.6987 23.5833 27.0772 23.2224 25.4587C22.8615 23.8402 22.5011 22.2986 22.1413 20.8339C21.8105 19.3631 21.4894 18.0135 21.1778 16.7851C20.8953 15.5506 20.6581 14.5377 20.4661 13.7463L21.9515 13.6646Z" fill="black"/>
<path d="M40.6479 37.4563C40.3041 35.7726 40.5046 34.4518 41.2497 33.4939C42.0238 32.5299 43.1528 31.8917 44.6366 31.5793C45.2185 31.4568 45.7597 31.3583 46.2604 31.2837C46.7901 31.203 47.2998 31.1727 47.7894 31.1928C48.279 31.213 48.7662 31.2953 49.2508 31.4397C49.7646 31.578 50.314 31.8167 50.8991 32.1556C50.881 32.067 50.8448 31.8898 50.7905 31.6239C50.7593 31.3224 50.7105 31.0092 50.6441 30.6843C50.5778 30.3593 50.5174 30.0639 50.4631 29.7981C50.4028 29.5027 50.3606 29.2959 50.3365 29.1778C50.1988 28.6522 50.0455 27.9759 49.8765 27.1488C49.7016 26.2922 49.4509 25.4361 49.1244 24.5806C48.8271 23.7189 48.3933 22.9322 47.8231 22.2204C47.282 21.5025 46.5328 21.0286 45.5755 20.7988C44.9645 20.9275 44.4183 21.1503 43.9368 21.4673C43.4554 21.7844 42.9769 22.1161 42.5015 22.4627C42.0261 22.8093 41.5477 23.1411 41.0662 23.4581C40.5787 23.7456 40.0295 23.9536 39.4185 24.0823C39.2677 23.3438 39.3622 22.6923 39.7021 22.1278C40.065 21.5277 40.5394 21.0273 41.1252 20.6267C41.7109 20.2261 42.3439 19.908 43.024 19.6723C43.7042 19.4367 44.3061 19.2638 44.8298 19.1535C45.3716 19.1319 45.8727 19.1342 46.3333 19.1605C46.8229 19.1806 47.293 19.3281 47.7437 19.603C48.2234 19.8717 48.6987 20.3416 49.1695 21.0127C49.6634 21.6481 50.1595 22.5912 50.6577 23.8419C51.185 25.0864 51.741 26.6947 52.3258 28.6665C52.9337 30.6027 53.5914 33.006 54.299 35.8763C54.4356 36.248 54.3741 36.6153 54.1144 36.9781C53.8778 37.3051 53.5187 37.6272 53.0372 37.9442C52.5498 38.2317 51.9865 38.5197 51.3475 38.8083C50.7316 39.0612 50.0951 39.2877 49.438 39.4876C48.7809 39.6876 48.1499 39.8666 47.5449 40.0248C46.94 40.183 46.4339 40.3049 46.0266 40.3907C45.5029 40.5009 44.9465 40.5256 44.3576 40.4648C43.7977 40.3978 43.2518 40.2509 42.7199 40.0239C42.2111 39.7613 41.763 39.4244 41.3755 39.013C41.0111 38.566 40.7686 38.0471 40.6479 37.4563ZM45.6878 33.1603C44.3175 33.8801 43.4018 34.5967 42.9406 35.3099C42.4734 35.9937 42.3231 36.5953 42.4899 37.1147C42.6858 37.628 43.1344 38.0419 43.8359 38.3564C44.5313 38.6413 45.3305 38.7657 46.2335 38.7297C47.1305 38.6641 48.0609 38.3911 49.0249 37.9109C49.9829 37.4011 50.8429 36.6347 51.605 35.6116C51.0809 34.8285 50.599 34.2522 50.1594 33.8826C49.7138 33.4835 49.2632 33.2086 48.8076 33.0581C48.352 32.9075 47.8709 32.8548 47.3642 32.8998C46.8576 32.9449 46.2987 33.0317 45.6878 33.1603Z" fill="black"/>
<path d="M58.6088 20.8739C58.3288 20.8404 57.9591 20.8875 57.4996 21.015C57.0632 21.1069 56.5892 21.2375 56.0776 21.4068C55.589 21.5405 55.118 21.6859 54.6646 21.8429C54.2112 22 53.8244 22.1123 53.5044 22.1796C53.3589 22.2103 53.2149 22.0249 53.0722 21.6236C52.9526 21.1867 52.7738 20.6082 52.5357 19.8881L58.5985 18.1495C58.4747 17.0973 58.382 16.3466 58.3206 15.8974C58.2592 15.4482 58.1838 15.0789 58.0944 14.7897C58.028 14.4647 57.9411 14.1133 57.8336 13.7355C57.7491 13.3219 57.6194 12.6868 57.4444 11.8302C58.1767 11.5528 58.738 11.4038 59.1283 11.3833C59.5417 11.3271 59.8392 11.3723 60.0208 11.5189C60.2025 11.6655 60.315 11.9191 60.3583 12.2797C60.4247 12.6046 60.4655 13.0273 60.4808 13.5478C60.5251 14.0623 60.5906 14.68 60.6772 15.4012C60.7929 16.1163 60.9849 16.9077 61.2532 17.7755L66.4539 16.4957L66.8973 18.6668C66.6645 18.7158 66.3039 18.8071 65.8153 18.9408C65.3268 19.0745 64.7946 19.2173 64.2187 19.3694C63.672 19.5153 63.1543 19.6551 62.6657 19.7887C62.2063 19.9163 61.8692 20.0489 61.6546 20.1865C61.639 21.2989 61.624 22.4882 61.6095 23.7544C61.595 25.0206 61.6647 26.2537 61.8188 27.4536C61.9728 28.6535 62.2281 29.7551 62.5848 30.7583C62.9354 31.732 63.471 32.4973 64.1916 33.0542C64.9062 33.5815 65.8289 33.8648 66.9597 33.904C68.0844 33.9137 69.4919 33.5249 71.1822 32.7378C71.2145 33.1931 71.1153 33.5991 70.8847 33.9557C70.6772 34.2767 70.4024 34.5656 70.0603 34.8225C69.7414 35.0437 69.3873 35.2414 68.9981 35.4158C68.6028 35.5606 68.2452 35.6667 67.9252 35.7341C66.4414 36.0465 65.2088 36.0287 64.2274 35.6808C63.2399 35.3033 62.4375 34.7174 61.8201 33.9231C61.2027 33.1289 60.7212 32.1827 60.3756 31.0848C60.0239 29.9573 59.742 28.7997 59.5298 27.612C59.3466 26.4182 59.1956 25.2331 59.0767 24.0565C58.9578 22.88 58.8018 21.8192 58.6088 20.8739Z" fill="black"/>
<path d="M66.638 4.02561C66.6079 3.87791 66.688 3.67618 66.8786 3.42041C67.0691 3.16464 67.2225 3.0245 67.3389 3C68.1628 3.31949 68.758 3.85657 69.1245 4.61123C69.485 5.33636 69.7498 6.11247 69.9187 6.93955C69.9549 7.11678 70.0001 7.33832 70.0544 7.60417C70.1318 7.83435 70.1831 8.08543 70.2083 8.3574C70.2274 8.59984 70.1854 8.83975 70.0822 9.07715C70.008 9.30842 69.8345 9.49899 69.5617 9.64886C69.3108 9.60924 69.0263 9.33026 68.708 8.8119C68.3897 8.29354 68.0739 7.71304 67.7606 7.07041C67.4763 6.42164 67.2273 5.79629 67.0133 5.19436C66.7993 4.59242 66.6742 4.20284 66.638 4.02561Z" fill="black"/>
<path d="M78.6606 29.6845C79.1843 29.5742 79.6855 29.5765 80.1641 29.6914C80.6719 29.8002 81.1711 29.9416 81.6618 30.1155C82.1464 30.26 82.6281 30.3896 83.1067 30.5045C83.6084 30.5838 84.1211 30.5683 84.6448 30.458C85.2558 30.3294 85.8602 30.0943 86.458 29.7528C87.0789 29.3756 87.6265 28.9368 88.1009 28.4364C88.5692 27.9065 88.9206 27.3242 89.1551 26.6894C89.3836 26.0252 89.4285 25.3533 89.2897 24.6739C89.2766 24.461 89.2253 24.21 89.1359 23.9207C89.0755 23.6253 88.9279 23.3483 88.693 23.0897C88.4521 22.8015 88.1008 22.5674 87.6392 22.3873C87.1716 22.1776 86.5299 22.0817 85.7142 22.0993C84.9276 22.1109 83.9524 22.2392 82.7887 22.4842C81.6189 22.6997 80.1999 23.1062 78.5316 23.7039C78.0952 23.7958 77.6492 23.7665 77.1936 23.6159C76.732 23.4358 76.305 23.2022 75.9126 22.9151C75.5141 22.5985 75.1708 22.2549 74.8827 21.8842C74.5885 21.484 74.4022 21.0919 74.3238 20.7079C74.0885 19.5559 74.1312 18.5764 74.452 17.7695C74.7957 16.9269 75.3036 16.2192 75.9756 15.6464C76.6415 15.0441 77.4219 14.5563 78.3167 14.1831C79.2115 13.8098 80.139 13.5221 81.0991 13.32C81.5355 13.2281 82.0361 13.1535 82.6009 13.0962C83.1889 13.0033 83.7367 13.0112 84.2444 13.1199C84.7752 13.193 85.2428 13.4027 85.6473 13.7488C86.0809 14.0889 86.3731 14.6281 86.5239 15.3666C86.5683 15.881 86.5444 16.2095 86.4521 16.3522C86.383 16.4592 86.2315 16.4603 85.9976 16.3555C85.7869 16.215 85.5204 16.0246 85.1982 15.7843C84.8761 15.5441 84.4987 15.3308 84.0662 15.1446C83.6567 14.9227 83.1751 14.7931 82.6212 14.7556C82.0965 14.7121 81.5291 14.8315 80.9192 15.114C80.2501 15.2548 79.596 15.4696 78.957 15.7581C78.312 16.0172 77.7463 16.3673 77.2598 16.8086C76.8025 17.2438 76.4566 17.7788 76.2221 18.4135C76.0167 19.0421 76.0015 19.7847 76.1764 20.6414C76.2669 21.0844 76.5194 21.3548 76.9338 21.4524C77.3713 21.5143 77.91 21.4779 78.5501 21.3432C79.2193 21.2023 79.9581 21.0313 80.7667 20.8303C81.5984 20.5936 82.4506 20.3833 83.3234 20.1996C84.1963 20.0158 85.0551 19.9121 85.8999 19.8882C86.7386 19.8349 87.5057 19.9507 88.2011 20.2356C88.9196 20.4848 89.5289 20.9419 90.0288 21.6069C90.5288 22.2719 90.8558 23.2043 91.0098 24.4042C91.1847 25.2609 91.1033 26.1252 90.7656 26.9974C90.457 27.8634 89.9847 28.6714 89.349 29.4214C88.7363 30.1358 88.0121 30.7504 87.1766 31.2652C86.341 31.78 85.4923 32.0819 84.6305 32.1709C84.2754 32.2149 83.7772 32.2273 83.1361 32.2082C82.518 32.1535 81.8879 32.0397 81.2457 31.8668C80.6325 31.6878 80.0801 31.4344 79.5883 31.1066C79.0905 30.7493 78.7813 30.2753 78.6606 29.6845Z" fill="black"/>
<path d="M17.5359 58.9096C17.9062 58.9096 18.2456 58.9827 18.5541 59.1289C18.8833 59.2751 19.2021 59.4422 19.5107 59.6302C19.8192 59.7973 20.1278 59.9539 20.4363 60.1001C20.7655 60.2254 21.1151 60.2881 21.4854 60.2881C21.9174 60.2881 22.3597 60.215 22.8122 60.0688C23.2853 59.9017 23.7173 59.6824 24.1081 59.4109C24.499 59.1185 24.8178 58.7739 25.0647 58.3771C25.3115 57.9594 25.4349 57.5104 25.4349 57.03C25.4555 56.8838 25.4555 56.7063 25.4349 56.4974C25.4349 56.2886 25.3732 56.0798 25.2498 55.8709C25.1264 55.6412 24.9207 55.4323 24.6327 55.2444C24.3447 55.0355 23.923 54.8789 23.3676 54.7744C22.8328 54.67 22.154 54.6178 21.3311 54.6178C20.5083 54.5969 19.4901 54.67 18.2764 54.8371C17.9679 54.8371 17.6696 54.7536 17.3816 54.5865C17.0936 54.3985 16.8365 54.1792 16.6102 53.9286C16.384 53.6571 16.1988 53.3752 16.0548 53.0828C15.9108 52.7695 15.8389 52.4771 15.8389 52.2056C15.8389 51.3911 16.0034 50.7332 16.3325 50.232C16.6822 49.7099 17.1245 49.3026 17.6593 49.0102C18.1942 48.697 18.7907 48.4777 19.4489 48.3524C20.1072 48.227 20.7757 48.1644 21.4546 48.1644C21.7631 48.1644 22.1128 48.1853 22.5036 48.227C22.9151 48.2479 23.2853 48.3315 23.6144 48.4777C23.9641 48.603 24.2521 48.8118 24.4784 49.1042C24.7252 49.3966 24.8487 49.8039 24.8487 50.326C24.8075 50.681 24.7458 50.9003 24.6635 50.9838C24.6018 51.0465 24.499 51.0256 24.355 50.9212C24.2316 50.7959 24.0773 50.6288 23.8921 50.42C23.707 50.2111 23.4807 50.0127 23.2133 49.8247C22.9665 49.6159 22.6579 49.4593 22.2877 49.3548C21.938 49.2504 21.5368 49.2504 21.0843 49.3548C20.6112 49.3548 20.1381 49.407 19.6649 49.5115C19.1918 49.595 18.7598 49.7516 18.369 49.9814C17.9987 50.2111 17.6902 50.5244 17.4433 50.9212C17.2171 51.318 17.1039 51.8192 17.1039 52.4249C17.1039 52.7382 17.2376 52.9575 17.505 53.0828C17.793 53.1872 18.1633 53.2394 18.6158 53.2394C19.089 53.2394 19.6135 53.229 20.1895 53.2081C20.786 53.1663 21.3928 53.1454 22.01 53.1454C22.6271 53.1454 23.2236 53.1976 23.7996 53.3021C24.3756 53.3856 24.8795 53.5736 25.3115 53.866C25.7641 54.1375 26.1137 54.5343 26.3606 55.0564C26.6074 55.5785 26.7 56.2573 26.6383 57.0927C26.6383 57.6983 26.4634 58.2727 26.1137 58.8157C25.7846 59.3587 25.3526 59.839 24.8178 60.2567C24.3036 60.6535 23.7276 60.9668 23.0899 61.1965C22.4522 61.4263 21.8351 61.5098 21.2386 61.4472C20.9917 61.4263 20.6523 61.3636 20.2203 61.2592C19.8089 61.1339 19.3975 60.9668 18.9861 60.758C18.5953 60.5491 18.2559 60.2985 17.9679 60.0061C17.6799 59.6928 17.5359 59.3273 17.5359 58.9096Z" fill="black"/>
<path d="M28.3765 54.4403C28.3765 53.8532 28.4268 53.1768 28.5273 52.411C28.6279 51.6197 28.7913 50.8284 29.0176 50.0371C29.2439 49.2458 29.5204 48.4672 29.8473 47.7014C30.1992 46.9357 30.6141 46.2592 31.0918 45.6721C31.5695 45.0595 32.1226 44.5745 32.7511 44.2172C33.3797 43.8343 34.0836 43.6428 34.863 43.6428C35.6675 43.6428 36.4092 43.9236 37.088 44.4852C37.792 45.0467 38.3828 45.7742 38.8605 46.6676C39.3633 47.5611 39.7405 48.5566 39.9919 49.6542C40.2433 50.7518 40.3439 51.8239 40.2936 52.8704C40.2936 54.402 40.0045 55.7676 39.4262 56.9674C38.8479 58.1671 38.1063 59.1371 37.2012 59.8773C36.3212 60.6176 35.3658 61.1153 34.335 61.3706C33.3294 61.6258 32.374 61.562 31.4689 61.1791C30.5889 60.7707 29.8473 60.0177 29.2439 58.9201C28.6656 57.8225 28.3765 56.3292 28.3765 54.4403ZM29.7718 54.5934C29.8473 56.1505 30.1113 57.3502 30.5638 58.1926C31.0163 59.035 31.5569 59.5965 32.1854 59.8773C32.8391 60.1326 33.5431 60.1326 34.2973 59.8773C35.0516 59.6221 35.7555 59.1754 36.4092 58.5372C37.0629 57.8735 37.616 57.0567 38.0686 56.0867C38.5462 55.0912 38.8102 53.9808 38.8605 52.7556C38.9108 51.8366 38.8354 50.9432 38.6342 50.0754C38.4583 49.2075 38.1943 48.4417 37.8423 47.778C37.5154 47.0888 37.1006 46.5528 36.5978 46.1699C36.1201 45.7615 35.567 45.5573 34.9384 45.5573C34.335 45.5573 33.7945 45.7104 33.3168 46.0167C32.8391 46.323 32.3991 46.7442 31.9969 47.2803C31.6197 47.7908 31.2929 48.3779 31.0163 49.0416C30.7398 49.7052 30.5009 50.3689 30.2998 51.0326C30.1238 51.6963 29.9855 52.3472 29.885 52.9853C29.8096 53.5979 29.7718 54.134 29.7718 54.5934Z" fill="black"/>
<path d="M47.8223 42.442C48.2063 42.442 48.6223 42.5394 49.0703 42.7344C49.5182 42.9293 49.8382 43.3191 50.0302 43.9039C50.2862 42.7993 50.6702 41.9059 51.1822 41.2237C51.7261 40.5414 52.3341 40.0704 53.0061 39.8105C53.71 39.5506 54.43 39.4694 55.166 39.5668C55.9339 39.6318 56.6379 39.8592 57.2778 40.2491C57.9498 40.6389 58.5258 41.1425 59.0058 41.7597C59.5177 42.377 59.8697 43.0917 60.0617 43.9039C60.4137 42.8968 60.8777 41.9709 61.4536 41.1262C62.0616 40.2491 62.7176 39.5181 63.4215 38.9333C64.1575 38.3485 64.9095 37.9424 65.6774 37.715C66.4774 37.4876 67.2133 37.5039 67.8853 37.7638C68.5893 37.9912 69.1972 38.511 69.7092 39.3232C70.2532 40.1029 70.6372 41.2399 70.8611 42.7344C70.9251 43.1567 71.0051 43.7902 71.1011 44.6349C71.1971 45.4471 71.2931 46.373 71.3891 47.4126C71.5171 48.4522 71.6451 49.5567 71.7731 50.7263C71.9331 51.8634 72.0611 52.9517 72.1571 53.9913C72.2851 55.0309 72.3971 55.973 72.4931 56.8177C72.5891 57.6299 72.6691 58.2309 72.733 58.6208C72.733 58.9456 72.717 59.303 72.6851 59.6929C72.653 60.0827 72.5731 60.4238 72.4451 60.7162C72.3491 60.9761 72.1731 61.1548 71.9171 61.2523C71.6931 61.3172 71.3411 61.171 70.8611 60.8137C70.8611 60.4238 70.8131 59.7903 70.7171 58.9132C70.6212 58.036 70.5252 57.0289 70.4292 55.8918C70.3332 54.7223 70.2052 53.504 70.0452 52.237C69.9172 50.9375 69.7732 49.7192 69.6132 48.5821C69.4852 47.445 69.3732 46.4379 69.2772 45.5608C69.1812 44.6836 69.0852 44.0663 68.9892 43.709C68.5093 42.2146 67.9973 41.1749 67.4533 40.5902C66.9413 40.0054 66.4134 39.7455 65.8694 39.8105C65.3574 39.8755 64.8615 40.2166 64.3815 40.8338C63.9015 41.4511 63.4695 42.2308 63.0855 43.1729C62.7016 44.1151 62.3336 45.1709 61.9816 46.3405C61.6616 47.4775 61.4056 48.6146 61.2136 49.7517C61.0536 50.8887 60.9417 51.9608 60.8777 52.9679C60.8457 53.975 60.9097 54.8035 61.0696 55.4532L59.1977 55.8431C59.2937 52.7243 59.1817 50.174 58.8618 48.1923C58.5738 46.178 58.1578 44.6349 57.6138 43.5628C57.1019 42.4907 56.5099 41.8572 55.8379 41.6623C55.166 41.4349 54.494 41.5648 53.822 42.0521C53.1821 42.5394 52.5901 43.3516 52.0461 44.4887C51.5021 45.6257 51.0862 47.0065 50.7982 48.6308C50.5422 50.2227 50.4462 52.0258 50.5102 54.04C50.5742 56.0543 50.9102 58.2147 51.5181 60.5213H49.6942C49.6942 60.5213 49.6462 60.2127 49.5502 59.5954C49.4862 58.9781 49.3903 58.1984 49.2623 57.2563C49.1663 56.2817 49.0543 55.1933 48.9263 53.9913C48.7983 52.7568 48.6703 51.5222 48.5423 50.2877C48.4143 49.0207 48.2863 47.8187 48.1583 46.6816C48.0303 45.512 47.9183 44.5212 47.8223 43.709C47.8223 43.6115 47.8223 43.4003 47.8223 43.0755C47.8223 42.7181 47.8223 42.5069 47.8223 42.442Z" fill="black"/>
<path d="M75.4895 46.7234C75.4895 45.4703 75.7569 44.0919 76.2917 42.5882C76.8265 41.0427 77.5465 39.6225 78.4516 38.3276C79.3978 36.991 80.4469 35.8841 81.5989 35.007C82.792 34.088 84.0262 33.6286 85.3015 33.6286C86.0009 33.6286 86.6797 33.7747 87.338 34.0671C88.0374 34.3595 88.6956 34.7563 89.3128 35.2576C89.971 35.717 90.547 36.26 91.0407 36.8866C91.5755 37.4714 91.9869 38.0979 92.2749 38.7662C92.5629 39.4345 92.7069 40.082 92.7069 40.7085C92.748 41.3351 92.5834 41.8781 92.2132 42.3375L79.1921 44.7811C79.0276 44.8228 78.8836 45.0317 78.7602 45.4076C78.6367 45.7418 78.5339 46.1804 78.4516 46.7234C78.3693 47.2664 78.287 47.872 78.2048 48.5403C78.1636 49.1669 78.1225 49.7934 78.0813 50.42C78.0402 51.0048 78.0196 51.5478 78.0196 52.049C78.0196 52.5085 78.0196 52.8635 78.0196 53.1141C78.0196 54.2837 78.287 55.2444 78.8219 55.9962C79.3978 56.7063 80.1178 57.2493 80.9818 57.6253C81.8457 58.0012 82.8125 58.2518 83.8822 58.3771C84.993 58.5024 86.0832 58.5651 87.1529 58.5651C88.2225 58.5651 89.2305 58.5233 90.1767 58.4398C91.1229 58.3562 91.9046 58.3145 92.5217 58.3145C92.5217 58.4815 92.46 58.6695 92.3366 58.8783C92.2132 59.0872 92.0692 59.296 91.9046 59.5049C91.7401 59.672 91.5755 59.8391 91.4109 60.0061C91.2464 60.1314 91.1435 60.215 91.1024 60.2568C90.7733 60.3403 90.259 60.4656 89.5596 60.6327C88.9014 60.758 88.1814 60.8833 87.3997 61.0086C86.6592 61.1339 85.9598 61.2383 85.3015 61.3219C84.6433 61.4054 84.1907 61.4472 83.9439 61.4472C82.6685 61.6978 81.5577 61.6769 80.6115 61.3845C79.6653 61.0921 78.863 60.5909 78.2048 59.8808C77.5465 59.1707 77.0117 58.3145 76.6003 57.312C76.1889 56.2677 75.8803 55.1608 75.6746 53.9913C75.4689 52.8217 75.3455 51.6104 75.3043 50.3573C75.3043 49.1042 75.3661 47.8929 75.4895 46.7234ZM84.4376 36.0094C84.0673 36.0094 83.5736 36.2183 82.9565 36.636C82.3805 37.0119 81.8251 37.5131 81.2903 38.1397C80.7966 38.7245 80.3646 39.3719 79.9944 40.082C79.6653 40.7503 79.5624 41.3351 79.6858 41.8363C80.7555 41.9616 81.8663 41.9407 83.0182 41.7737C84.1702 41.6066 85.2193 41.356 86.1655 41.0218C87.1117 40.6459 87.8934 40.2282 88.5105 39.7687C89.1276 39.2675 89.4156 38.7662 89.3745 38.265C89.3745 37.7638 88.9836 37.3252 88.202 36.9492C87.4614 36.5316 86.2066 36.2183 84.4376 36.0094Z" fill="black"/>
<path d="M100.914 61.5725C99.9271 60.9459 99.2482 60.2776 98.878 59.5676C98.5077 58.8575 98.3431 58.1891 98.3843 57.5626C98.4666 56.8943 98.7134 56.3304 99.1248 55.8709C99.5362 55.4115 100.009 55.14 100.544 55.0564C101.12 54.9729 101.717 55.14 102.334 55.5577C102.951 55.9336 103.506 56.6854 104 57.8132C104 58.2309 103.918 58.6695 103.753 59.129C103.63 59.5467 103.424 59.9435 103.136 60.3194C102.889 60.6536 102.56 60.9459 102.149 61.1966C101.778 61.4472 101.367 61.5725 100.914 61.5725ZM101.47 57.8132C101.305 57.8132 101.182 57.8759 101.1 58.0012C101.017 58.1265 100.976 58.2936 100.976 58.5024C100.976 58.6695 101.017 58.8157 101.1 58.941C101.182 59.0663 101.305 59.1081 101.47 59.0663C101.84 58.9828 102.025 58.7948 102.025 58.5024C102.025 58.1683 101.84 57.9385 101.47 57.8132ZM95.4839 20.7217C95.4839 20.3458 95.5044 20.0952 95.5456 19.9699C95.6279 19.8028 95.7513 19.7192 95.9158 19.7192C96.1216 19.6775 96.389 19.6566 96.7181 19.6566C97.0472 19.6148 97.4586 19.5104 97.9523 19.3433L101.47 48.2271C101.388 48.2688 101.202 48.3315 100.914 48.415C100.626 48.4986 100.421 48.5403 100.297 48.5403C99.8036 48.5403 99.4128 48.4568 99.1248 48.2897C98.8368 48.0809 98.6106 47.8094 98.446 47.4752C98.3226 47.0993 98.2197 46.6816 98.1374 46.2221C98.0963 45.7209 98.0346 45.1988 97.9523 44.6558C97.9112 44.4469 97.8495 43.9039 97.7672 43.0267C97.6849 42.1496 97.5615 41.0636 97.3969 39.7687C97.2323 38.4738 97.0678 37.0537 96.9032 35.5082C96.7387 33.9209 96.5741 32.3546 96.4095 30.8091C96.245 29.2636 96.0804 27.8017 95.9158 26.4233C95.7513 25.0449 95.6279 23.8962 95.5456 22.9773C95.5456 22.9773 95.525 22.8729 95.4839 22.664C95.4839 22.4134 95.4839 22.1628 95.4839 21.9121C95.4839 21.6198 95.4839 21.3691 95.4839 21.1603C95.4839 20.9097 95.4839 20.7635 95.4839 20.7217Z" fill="black"/>
</g>
<defs>
<filter id="filter0_d_93_914" x="0" y="0" width="108" height="66.6207" filterUnits="userSpaceOnUse" color-interpolation-filters="sRGB">
<feFlood flood-opacity="0" result="BackgroundImageFix"/>
<feColorMatrix in="SourceAlpha" type="matrix" values="0 0 0 0 0 0 0 0 0 0 0 0 0 0 0 0 0 0 127 0" result="hardAlpha"/>
<feOffset dy="1"/>
<feGaussianBlur stdDeviation="2"/>
<feComposite in2="hardAlpha" operator="out"/>
<feColorMatrix type="matrix" values="0 0 0 0 0 0 0 0 0 0 0 0 0 0 0 0 0 0 0.25 0"/>
<feBlend mode="normal" in2="BackgroundImageFix" result="effect1_dropShadow_93_914"/>
<feBlend mode="normal" in="SourceGraphic" in2="effect1_dropShadow_93_914" result="shape"/>
</filter>
</defs>
</svg>
